<svg xmlns="http://www.w3.org/2000/svg" xmlns:xlink="http://www.w3.org/1999/xlink" version="1.1" width="256" height="256" viewBox="0 0 256 256" xml:space="preserve">
<g style="stroke: none; stroke-width: 0; stroke-dasharray: none; stroke-linecap: butt; stroke-linejoin: miter; stroke-miterlimit: 10; fill: none; fill-rule: nonzero; opacity: 1;" transform="translate(1.4065934065934016 1.4065934065934016) scale(2.81 2.81)">
	<path d="M 75.532 71.142 H 14.468 C 6.49 71.142 0 64.651 0 56.674 c 0 -6.004 3.677 -11.328 9.227 -13.48 c -0.011 -0.274 -0.018 -0.549 -0.018 -0.826 c 0 -12.963 10.546 -23.509 23.509 -23.509 c 8.661 0 16.68 4.848 20.744 12.445 c 2.78 -1.716 5.945 -2.617 9.223 -2.617 c 8.5 0 15.67 5.945 17.282 14.228 C 85.905 44.826 90 50.395 90 56.674 C 90 64.651 83.51 71.142 75.532 71.142 z M 32.718 20.858 c -11.86 0 -21.509 9.649 -21.509 21.509 c 0 0.488 0.022 0.97 0.054 1.45 c 0.03 0.456 -0.252 0.874 -0.686 1.016 C 5.447 46.52 2 51.277 2 56.674 c 0 6.875 5.593 12.468 12.468 12.468 h 61.064 C 82.407 69.142 88 63.549 88 56.674 c 0 -5.595 -3.772 -10.534 -9.174 -12.013 c -0.379 -0.104 -0.662 -0.419 -0.724 -0.808 c -1.211 -7.629 -7.695 -13.167 -15.418 -13.167 c -3.246 0 -6.369 0.999 -9.03 2.888 c -0.242 0.171 -0.548 0.226 -0.832 0.152 c -0.286 -0.075 -0.524 -0.272 -0.651 -0.54 C 48.63 25.697 40.994 20.858 32.718 20.858 z" style="stroke: none; stroke-width: 1; stroke-dasharray: none; stroke-linecap: butt; stroke-linejoin: miter; stroke-miterlimit: 10; fill: rgb(0,0,0); fill-rule: nonzero; opacity: 1;" transform=" matrix(1 0 0 1 0 0) " stroke-linecap="round"/>
</g>
</svg>