<svg xmlns="http://www.w3.org/2000/svg" xmlns:xlink="http://www.w3.org/1999/xlink" version="1.1" width="256" height="256" viewBox="0 0 256 256" xml:space="preserve">
<g style="stroke: none; stroke-width: 0; stroke-dasharray: none; stroke-linecap: butt; stroke-linejoin: miter; stroke-miterlimit: 10; fill: none; fill-rule: nonzero; opacity: 1;" transform="translate(1.4065934065934016 1.4065934065934016) scale(2.81 2.81)">
	<path d="M 67.958 23.6 c -0.004 -0.019 -0.012 -0.036 -0.016 -0.055 c -0.034 -0.147 -0.088 -0.289 -0.156 -0.426 c -0.019 -0.039 -0.038 -0.077 -0.06 -0.115 c -0.086 -0.148 -0.184 -0.291 -0.311 -0.418 c -0.127 -0.127 -0.27 -0.226 -0.418 -0.311 c -0.038 -0.022 -0.075 -0.041 -0.114 -0.06 c -0.139 -0.069 -0.283 -0.123 -0.431 -0.158 c -0.017 -0.004 -0.033 -0.011 -0.05 -0.015 c -0.165 -0.034 -0.333 -0.041 -0.501 -0.033 c -0.042 0.002 -0.083 0.007 -0.125 0.012 c -0.156 0.018 -0.31 0.05 -0.459 0.105 c -0.012 0.005 -0.025 0.004 -0.038 0.009 l -0.029 0.011 c -0.001 0 -0.002 0.001 -0.003 0.001 l -47.968 18.57 c -0.744 0.288 -1.246 0.992 -1.276 1.789 c -0.03 0.798 0.417 1.537 1.137 1.881 L 36.41 53.59 l 9.204 19.272 C 45.946 73.56 46.649 74 47.418 74 c 0.025 0 0.051 0 0.076 -0.001 c 0.798 -0.031 1.501 -0.532 1.789 -1.277 l 18.57 -47.969 c 0 0 0 -0.001 0 -0.001 l 0.012 -0.03 c 0.005 -0.013 0.004 -0.026 0.009 -0.039 c 0.054 -0.149 0.087 -0.302 0.104 -0.458 c 0.005 -0.043 0.01 -0.084 0.012 -0.126 C 67.999 23.931 67.991 23.764 67.958 23.6 z M 57.885 29.286 l -20.39 20.39 l -14.452 -6.901 L 57.885 29.286 z M 47.226 66.957 l -6.902 -14.453 l 20.391 -20.391 L 47.226 66.957 z" style="stroke: none; stroke-width: 1; stroke-dasharray: none; stroke-linecap: butt; stroke-linejoin: miter; stroke-miterlimit: 10; fill: rgb(0,0,0); fill-rule: nonzero; opacity: 1;" transform=" matrix(1 0 0 1 0 0) " stroke-linecap="round"/>
	<path d="M 45 0 C 20.187 0 0 20.187 0 45 c 0 24.813 20.187 45 45 45 c 24.813 0 45 -20.187 45 -45 C 90 20.187 69.813 0 45 0 z M 45 86 C 22.393 86 4 67.607 4 45 S 22.393 4 45 4 s 41 18.393 41 41 S 67.607 86 45 86 z" style="stroke: none; stroke-width: 1; stroke-dasharray: none; stroke-linecap: butt; stroke-linejoin: miter; stroke-miterlimit: 10; fill: rgb(0,0,0); fill-rule: nonzero; opacity: 1;" transform=" matrix(1 0 0 1 0 0) " stroke-linecap="round"/>
</g>
</svg>