<svg xmlns="http://www.w3.org/2000/svg" xmlns:xlink="http://www.w3.org/1999/xlink" version="1.1" width="256" height="256" viewBox="0 0 256 256" xml:space="preserve">
<g style="stroke: none; stroke-width: 0; stroke-dasharray: none; stroke-linecap: butt; stroke-linejoin: miter; stroke-miterlimit: 10; fill: none; fill-rule: nonzero; opacity: 1;" transform="translate(1.4065934065934016 1.4065934065934016) scale(2.81 2.81)">
	<path d="M 35.901 90 c -0.223 0 -0.45 -0.037 -0.669 -0.115 c -0.87 -0.31 -1.415 -1.173 -1.319 -2.091 l 3.599 -34.734 l -17.387 3.35 c -0.786 0.153 -1.592 -0.183 -2.04 -0.851 c -0.447 -0.667 -0.452 -1.537 -0.012 -2.209 L 52.426 0.904 c 0.507 -0.772 1.477 -1.097 2.343 -0.789 c 0.869 0.309 1.414 1.173 1.319 2.09 l -3.6 34.734 l 17.389 -3.35 c 0.792 -0.152 1.592 0.184 2.039 0.85 c 0.447 0.667 0.452 1.538 0.012 2.209 L 37.574 89.096 C 37.197 89.673 36.561 90 35.901 90 z M 39.778 48.586 c 0.496 0 0.979 0.185 1.352 0.525 c 0.466 0.428 0.703 1.051 0.638 1.681 l -3.028 29.226 l 27.253 -41.605 L 50.6 41.378 c -0.616 0.121 -1.263 -0.062 -1.729 -0.489 c -0.467 -0.428 -0.703 -1.051 -0.638 -1.681 l 3.028 -29.226 L 24.009 51.587 L 39.4 48.622 C 39.526 48.598 39.652 48.586 39.778 48.586 z" style="stroke: none; stroke-width: 1; stroke-dasharray: none; stroke-linecap: butt; stroke-linejoin: miter; stroke-miterlimit: 10; fill: rgb(0,0,0); fill-rule: nonzero; opacity: 1;" transform=" matrix(1 0 0 1 0 0) " stroke-linecap="round"/>
</g>
</svg>