<svg xmlns="http://www.w3.org/2000/svg" xmlns:xlink="http://www.w3.org/1999/xlink" version="1.1" width="256" height="256" viewBox="0 0 256 256" xml:space="preserve">
<g style="stroke: none; stroke-width: 0; stroke-dasharray: none; stroke-linecap: butt; stroke-linejoin: miter; stroke-miterlimit: 10; fill: none; fill-rule: nonzero; opacity: 1;" transform="translate(1.4065934065934016 1.4065934065934016) scale(2.81 2.81)">
	<path d="M 77.578 0 H 12.422 C 9.699 0 7.483 2.216 7.483 4.939 v 14.926 v 59.049 v 6.147 c 0 2.723 2.216 4.938 4.939 4.938 h 65.156 c 2.723 0 4.938 -2.216 4.938 -4.938 v -6.147 V 19.865 V 4.939 C 82.517 2.216 80.301 0 77.578 0 z M 9.483 4.939 C 9.483 3.318 10.802 2 12.422 2 h 65.156 c 1.62 0 2.938 1.318 2.938 2.939 v 13.926 H 9.483 V 4.939 z M 80.517 20.865 v 57.049 H 9.483 V 20.865 H 80.517 z M 80.517 85.062 c 0 1.62 -1.318 2.938 -2.938 2.938 H 12.422 c -1.621 0 -2.939 -1.318 -2.939 -2.938 v -5.147 h 71.033 V 85.062 z" style="stroke: none; stroke-width: 1; stroke-dasharray: none; stroke-linecap: butt; stroke-linejoin: miter; stroke-miterlimit: 10; fill: rgb(0,0,0); fill-rule: nonzero; opacity: 1;" transform=" matrix(1 0 0 1 0 0) " stroke-linecap="round"/>
	<path d="M 45 71.295 c 12.078 0 21.905 -9.827 21.905 -21.905 c 0 -12.079 -9.827 -21.906 -21.905 -21.906 c -12.079 0 -21.905 9.827 -21.905 21.906 C 23.095 61.468 32.921 71.295 45 71.295 z M 45 29.484 c 10.976 0 19.905 8.93 19.905 19.906 c 0 10.976 -8.93 19.905 -19.905 19.905 s -19.905 -8.93 -19.905 -19.905 C 25.095 38.414 34.024 29.484 45 29.484 z" style="stroke: none; stroke-width: 1; stroke-dasharray: none; stroke-linecap: butt; stroke-linejoin: miter; stroke-miterlimit: 10; fill: rgb(0,0,0); fill-rule: nonzero; opacity: 1;" transform=" matrix(1 0 0 1 0 0) " stroke-linecap="round"/>
	<path d="M 29.984 46.719 c -0.074 0.415 -0.138 0.832 -0.178 1.257 c -0.047 0.479 -0.072 0.952 -0.072 1.414 c 0 8.418 6.848 15.266 15.266 15.266 c 0.507 0 1.008 -0.028 1.503 -0.076 c 0.107 -0.011 0.212 -0.03 0.319 -0.043 c 0.398 -0.047 0.792 -0.104 1.18 -0.181 c 0.084 -0.017 0.165 -0.038 0.249 -0.057 c 0.421 -0.09 0.835 -0.196 1.242 -0.32 c 0.036 -0.011 0.071 -0.023 0.106 -0.034 c 3.78 -1.181 6.932 -3.782 8.804 -7.255 c 0.031 -0.057 0.057 -0.117 0.088 -0.175 c 0.171 -0.328 0.336 -0.66 0.484 -1.003 c 0.106 -0.24 0.197 -0.487 0.29 -0.733 c 0.06 -0.161 0.123 -0.32 0.177 -0.484 c 0.119 -0.348 0.221 -0.703 0.314 -1.062 c 0.018 -0.068 0.036 -0.136 0.053 -0.204 c 0.101 -0.41 0.183 -0.826 0.25 -1.248 c 0.003 -0.017 0.007 -0.033 0.01 -0.05 c 0.001 -0.006 0 -0.012 0 -0.017 c 0.117 -0.76 0.196 -1.531 0.196 -2.323 c 0 -8.418 -6.848 -15.266 -15.266 -15.266 c -7.455 0 -13.669 5.376 -14.995 12.453 c -0.001 0.003 -0.002 0.006 -0.003 0.009 C 29.994 46.63 29.992 46.674 29.984 46.719 z M 31.734 49.39 c 0 -0.38 0.026 -0.754 0.057 -1.126 c 0.016 -0.178 0.035 -0.358 0.059 -0.539 c 0.008 -0.061 0.019 -0.12 0.028 -0.181 c 5.287 -1.481 8.343 0.649 11.573 2.899 c 3.505 2.441 7.44 5.182 14.239 2.777 c -0.072 0.243 -0.159 0.479 -0.245 0.716 c -0.051 0.14 -0.098 0.282 -0.154 0.42 c -0.063 0.158 -0.134 0.312 -0.203 0.467 c -0.117 0.26 -0.238 0.519 -0.371 0.77 c -0.034 0.066 -0.069 0.131 -0.104 0.196 c -1.829 3.306 -5.026 5.75 -8.824 6.566 c -0.079 0.017 -0.158 0.034 -0.238 0.049 c -0.323 0.063 -0.652 0.111 -0.983 0.151 c -0.102 0.012 -0.203 0.028 -0.306 0.037 c -0.416 0.039 -0.836 0.064 -1.263 0.064 C 37.686 62.655 31.734 56.704 31.734 49.39 z M 45 36.124 c 7.314 0 13.266 5.951 13.266 13.266 c 0 0.502 -0.034 0.996 -0.088 1.484 c -6.553 2.8 -9.822 0.546 -13.582 -2.072 c -3.129 -2.179 -6.645 -4.613 -12.236 -3.425 C 34.063 40.018 39.084 36.124 45 36.124 z" style="stroke: none; stroke-width: 1; stroke-dasharray: none; stroke-linecap: butt; stroke-linejoin: miter; stroke-miterlimit: 10; fill: rgb(0,0,0); fill-rule: nonzero; opacity: 1;" transform=" matrix(1 0 0 1 0 0) " stroke-linecap="round"/>
	<path d="M 31.943 5.729 H 18.285 c -2.594 0 -4.704 2.11 -4.704 4.704 s 2.11 4.704 4.704 4.704 h 13.658 c 2.594 0 4.704 -2.11 4.704 -4.704 S 34.537 5.729 31.943 5.729 z M 31.943 13.137 H 18.285 c -1.491 0 -2.704 -1.213 -2.704 -2.704 c 0 -1.491 1.213 -2.704 2.704 -2.704 h 13.658 c 1.491 0 2.704 1.213 2.704 2.704 C 34.646 11.924 33.434 13.137 31.943 13.137 z" style="stroke: none; stroke-width: 1; stroke-dasharray: none; stroke-linecap: butt; stroke-linejoin: miter; stroke-miterlimit: 10; fill: rgb(0,0,0); fill-rule: nonzero; opacity: 1;" transform=" matrix(1 0 0 1 0 0) " stroke-linecap="round"/>
	<path d="M 55.255 5.729 H 53.4 c -2.594 0 -4.704 2.11 -4.704 4.704 s 2.11 4.704 4.704 4.704 h 1.854 c 2.594 0 4.704 -2.11 4.704 -4.704 S 57.849 5.729 55.255 5.729 z M 55.255 13.137 H 53.4 c -1.491 0 -2.704 -1.213 -2.704 -2.704 c 0 -1.491 1.213 -2.704 2.704 -2.704 h 1.854 c 1.491 0 2.704 1.213 2.704 2.704 C 57.959 11.924 56.746 13.137 55.255 13.137 z" style="stroke: none; stroke-width: 1; stroke-dasharray: none; stroke-linecap: butt; stroke-linejoin: miter; stroke-miterlimit: 10; fill: rgb(0,0,0); fill-rule: nonzero; opacity: 1;" transform=" matrix(1 0 0 1 0 0) " stroke-linecap="round"/>
	<path d="M 71.716 5.729 h -1.854 c -2.594 0 -4.704 2.11 -4.704 4.704 s 2.11 4.704 4.704 4.704 h 1.854 c 2.594 0 4.703 -2.11 4.703 -4.704 S 74.31 5.729 71.716 5.729 z M 71.716 13.137 h -1.854 c -1.491 0 -2.704 -1.213 -2.704 -2.704 c 0 -1.491 1.213 -2.704 2.704 -2.704 h 1.854 c 1.49 0 2.703 1.213 2.703 2.704 C 74.419 11.924 73.206 13.137 71.716 13.137 z" style="stroke: none; stroke-width: 1; stroke-dasharray: none; stroke-linecap: butt; stroke-linejoin: miter; stroke-miterlimit: 10; fill: rgb(0,0,0); fill-rule: nonzero; opacity: 1;" transform=" matrix(1 0 0 1 0 0) " stroke-linecap="round"/>
</g>
</svg>