<svg xmlns="http://www.w3.org/2000/svg" xmlns:xlink="http://www.w3.org/1999/xlink" version="1.1" width="256" height="256" viewBox="0 0 256 256" xml:space="preserve">
<g style="stroke: none; stroke-width: 0; stroke-dasharray: none; stroke-linecap: butt; stroke-linejoin: miter; stroke-miterlimit: 10; fill: none; fill-rule: nonzero; opacity: 1;" transform="translate(1.4065934065934016 1.4065934065934016) scale(2.81 2.81)">
	<path d="M 45 0 C 20.187 0 0 20.187 0 45 c 0 24.813 20.187 45 45 45 c 24.813 0 45 -20.187 45 -45 C 90 20.187 69.813 0 45 0 z M 45 84 C 23.495 84 6 66.505 6 45 S 23.495 6 45 6 s 39 17.495 39 39 S 66.505 84 45 84 z" style="stroke: none; stroke-width: 1; stroke-dasharray: none; stroke-linecap: butt; stroke-linejoin: miter; stroke-miterlimit: 10; fill: rgb(0,0,0); fill-rule: nonzero; opacity: 1;" transform=" matrix(1 0 0 1 0 0) " stroke-linecap="round"/>
	<path d="M 55.749 44.972 c 2.275 -2.075 3.714 -5.053 3.714 -8.369 c 0 -4.759 -2.95 -8.836 -7.115 -10.516 V 22.5 c 0 -1.657 -1.343 -3 -3 -3 s -3 1.343 -3 3 v 2.763 h -2.369 V 22.5 c 0 -1.657 -1.343 -3 -3 -3 s -3 1.343 -3 3 v 2.763 h -2.442 c -1.657 0 -3 1.343 -3 3 v 16.681 c 0 0.01 0.003 0.019 0.003 0.028 c 0 0.01 -0.003 0.019 -0.003 0.028 v 16.681 c 0 1.657 1.343 3 3 3 h 2.442 V 67.5 c 0 1.657 1.343 3 3 3 s 3 -1.343 3 -3 v -2.819 h 2.369 V 67.5 c 0 1.657 1.343 3 3 3 s 3 -1.343 3 -3 v -3.644 c 4.165 -1.68 7.115 -5.757 7.115 -10.516 C 59.463 50.025 58.025 47.047 55.749 44.972 z M 48.123 41.943 h -9.586 V 31.263 h 9.586 c 2.944 0 5.34 2.396 5.34 5.34 S 51.068 41.943 48.123 41.943 z M 48.123 58.681 h -9.586 V 48 h 9.586 c 2.944 0 5.34 2.396 5.34 5.341 C 53.463 56.285 51.068 58.681 48.123 58.681 z" style="stroke: none; stroke-width: 1; stroke-dasharray: none; stroke-linecap: butt; stroke-linejoin: miter; stroke-miterlimit: 10; fill: rgb(0,0,0); fill-rule: nonzero; opacity: 1;" transform=" matrix(1 0 0 1 0 0) " stroke-linecap="round"/>
</g>
</svg>