<svg xmlns="http://www.w3.org/2000/svg" xmlns:xlink="http://www.w3.org/1999/xlink" version="1.1" width="256" height="256" viewBox="0 0 256 256" xml:space="preserve">
<g style="stroke: none; stroke-width: 0; stroke-dasharray: none; stroke-linecap: butt; stroke-linejoin: miter; stroke-miterlimit: 10; fill: none; fill-rule: nonzero; opacity: 1;" transform="translate(1.4065934065934016 1.4065934065934016) scale(2.81 2.81)">
	<path d="M 56.29 84.018 c -4.119 0 -7.451 -3.034 -8.795 -4.469 c -1.185 -1.264 -2.219 -2.657 -3.22 -4.005 c -1.156 -1.558 -2.249 -3.03 -3.559 -4.329 c -4.899 -4.865 -11.706 -6.415 -18.912 -8.054 c -3.429 -0.781 -6.975 -1.588 -10.288 -2.785 c -4.133 -1.492 -7.092 -3.418 -9.049 -5.888 c -2.576 -3.253 -3.2 -7.592 -1.552 -10.796 c 1.633 -3.177 4.848 -4.653 7.956 -6.081 c 1.627 -0.747 3.309 -1.52 4.693 -2.518 c 4.143 -2.988 5.995 -8.207 7.786 -13.254 c 0.318 -0.897 0.635 -1.789 0.962 -2.664 C 24.6 13.052 28.659 5.82 34.809 5.991 c 1.216 0.038 2.39 0.334 3.49 0.881 l 0 0 c 3.3 1.641 5.45 5.188 7.528 8.618 c 1.195 1.972 2.324 3.834 3.556 5.102 c 3.34 3.44 8.54 5.262 15.896 5.568 c 1.742 0.073 3.533 0.074 5.266 0.076 c 4.246 0.004 8.638 0.008 12.876 1.04 c 3.734 0.909 7.164 3.618 6.499 7.035 c -0.254 1.306 -1.088 2.502 -2.549 3.657 c -3.047 2.409 -6.904 3.564 -10.635 4.682 c -4.856 1.454 -9.443 2.828 -11.82 6.762 c -1.664 2.753 -1.973 6.408 -0.97 11.503 c 0.181 0.923 0.387 1.846 0.593 2.769 c 0.715 3.201 1.453 6.512 1.177 9.888 c -0.35 4.265 -2.934 9.302 -7.78 10.281 C 57.375 83.966 56.826 84.018 56.29 84.018 z M 34.577 7.987 c -5.171 0 -8.724 7.425 -10.391 11.886 c -0.323 0.865 -0.636 1.747 -0.95 2.633 c -1.893 5.337 -3.851 10.855 -8.501 14.208 c -1.543 1.112 -3.315 1.926 -5.029 2.713 c -2.928 1.345 -5.695 2.616 -7.012 5.178 c -1.496 2.909 -0.404 6.435 1.341 8.639 c 1.718 2.17 4.388 3.887 8.16 5.249 c 3.197 1.155 6.682 1.948 10.052 2.716 c 7.164 1.63 14.572 3.317 19.878 8.585 c 1.417 1.406 2.606 3.008 3.756 4.557 c 0.967 1.303 1.968 2.65 3.073 3.83 c 2.686 2.866 5.89 4.258 8.586 3.711 c 3.662 -0.74 5.882 -4.829 6.181 -8.484 c 0.252 -3.073 -0.421 -6.092 -1.135 -9.289 c -0.209 -0.94 -0.419 -1.879 -0.604 -2.819 c -0.694 -3.532 -1.324 -8.714 1.222 -12.924 c 2.776 -4.594 7.952 -6.144 12.958 -7.643 c 3.55 -1.063 7.22 -2.162 9.968 -4.334 c 1.069 -0.846 1.667 -1.654 1.826 -2.47 c 0.473 -2.427 -2.822 -4.177 -5.008 -4.709 c -4.006 -0.975 -8.276 -0.98 -12.405 -0.983 c -1.752 -0.001 -3.565 -0.003 -5.348 -0.078 c -7.891 -0.329 -13.532 -2.348 -17.247 -6.173 c -1.389 -1.431 -2.575 -3.388 -3.831 -5.459 c -1.931 -3.186 -3.927 -6.481 -6.708 -7.863 l 0 0 c -0.852 -0.424 -1.723 -0.644 -2.662 -0.673 C 34.69 7.988 34.633 7.987 34.577 7.987 z" style="stroke: none; stroke-width: 1; stroke-dasharray: none; stroke-linecap: butt; stroke-linejoin: miter; stroke-miterlimit: 10; fill: rgb(0,0,0); fill-rule: nonzero; opacity: 1;" transform=" matrix(1 0 0 1 0 0) " stroke-linecap="round"/>
</g>
</svg>