<svg xmlns="http://www.w3.org/2000/svg" xmlns:xlink="http://www.w3.org/1999/xlink" version="1.1" width="256" height="256" viewBox="0 0 256 256" xml:space="preserve">
<g style="stroke: none; stroke-width: 0; stroke-dasharray: none; stroke-linecap: butt; stroke-linejoin: miter; stroke-miterlimit: 10; fill: none; fill-rule: nonzero; opacity: 1;" transform="translate(1.4065934065934016 1.4065934065934016) scale(2.81 2.81)">
	<path d="M 22.952 76.758 c -0.553 0 -1.106 -0.03 -1.657 -0.092 c -2.111 -0.237 -3.647 -0.968 -4.564 -2.174 c -1.661 -2.181 -0.841 -5.222 0.479 -7.341 c 0.338 -0.542 0.711 -1.07 1.085 -1.599 c 0.896 -1.267 1.744 -2.463 2.044 -3.819 c 0.814 -3.678 -2.571 -7.116 -5.991 -9.995 c -4.646 -3.911 -9.835 -8.609 -12.595 -14.877 c -2.522 -5.727 -2.794 -13.848 2.285 -19.081 c 3.624 -3.733 9.689 -5.328 15.825 -4.163 c 3.051 0.578 5.7 1.988 8.261 3.352 c 2.305 1.227 4.483 2.386 6.891 2.952 c 3.748 0.882 8.516 -0.106 12.722 -0.979 c 1.657 -0.343 3.223 -0.667 4.707 -0.885 c 4.036 -0.593 8.211 -1.206 12.395 -0.466 c 2.711 0.479 4.781 1.496 6.152 3.023 c 2.555 2.845 2.343 6.662 2.139 10.354 c -0.075 1.354 -0.153 2.754 -0.082 4.043 c 0.149 2.699 1.026 5.311 2.537 7.552 c 1.544 2.292 3.645 4.084 5.87 5.983 c 1.398 1.193 2.845 2.428 4.14 3.798 c 3.521 3.723 5.905 9.505 3.294 14.029 c -1.517 2.628 -4.544 4.379 -8.098 4.684 c -3.206 0.278 -6.345 -0.592 -8.988 -1.478 c -1.981 -0.665 -3.954 -1.432 -5.862 -2.174 c -3.585 -1.394 -7.293 -2.835 -11.079 -3.595 c -6.553 -1.32 -12.455 -0.16 -16.194 3.175 c -0.938 0.837 -1.745 1.804 -2.6 2.827 c -0.815 0.976 -1.658 1.984 -2.631 2.88 C 30.61 75.296 26.786 76.758 22.952 76.758 z M 15.894 15.24 c -4.155 0 -7.958 1.395 -10.421 3.933 c -4.407 4.541 -4.069 11.935 -1.89 16.883 c 2.588 5.875 7.579 10.386 12.053 14.153 c 3.877 3.264 7.7 7.236 6.656 11.956 c -0.388 1.751 -1.393 3.171 -2.365 4.544 c -0.351 0.495 -0.703 0.991 -1.02 1.501 c -0.968 1.552 -1.629 3.699 -0.585 5.071 c 0.574 0.754 1.649 1.224 3.196 1.396 c 3.802 0.427 7.75 -0.865 10.565 -3.455 c 0.877 -0.808 1.641 -1.723 2.45 -2.691 c 0.863 -1.034 1.756 -2.103 2.804 -3.037 c 4.213 -3.756 10.746 -5.087 17.919 -3.644 c 3.955 0.794 7.745 2.268 11.409 3.692 c 1.887 0.733 3.838 1.491 5.773 2.141 c 2.447 0.82 5.333 1.625 8.181 1.382 c 2.86 -0.246 5.365 -1.66 6.537 -3.691 c 2.097 -3.633 -0.003 -8.472 -3.015 -11.655 c -1.222 -1.293 -2.626 -2.491 -3.984 -3.65 c -2.229 -1.901 -4.534 -3.868 -6.23 -6.387 c -1.712 -2.54 -2.706 -5.499 -2.875 -8.559 c -0.078 -1.4 0.003 -2.857 0.081 -4.265 c 0.19 -3.436 0.37 -6.68 -1.63 -8.907 c -1.065 -1.187 -2.751 -1.991 -5.012 -2.39 c -3.867 -0.683 -7.878 -0.095 -11.757 0.475 c -1.427 0.209 -2.965 0.528 -4.592 0.865 c -4.41 0.914 -9.406 1.948 -13.586 0.967 c -2.66 -0.625 -5.056 -1.9 -7.373 -3.134 c -2.541 -1.353 -4.942 -2.63 -7.694 -3.152 h 0 C 18.278 15.353 17.072 15.24 15.894 15.24 z" style="stroke: none; stroke-width: 1; stroke-dasharray: none; stroke-linecap: butt; stroke-linejoin: miter; stroke-miterlimit: 10; fill: rgb(0,0,0); fill-rule: nonzero; opacity: 1;" transform=" matrix(1 0 0 1 0 0) " stroke-linecap="round"/>
</g>
</svg>